<svg xmlns="http://www.w3.org/2000/svg" width="320" height="24" viewBox="0 0 320 24" fill="none">
  <rect width="320" height="24" fill="transparent"/>
  <g stroke-width="3" stroke-linecap="round">
    <path d="M4 12 L16 4 L28 12 L40 4 L52 12 L64 4 L76 12 L88 4 L100 12 L112 4 L124 12 L136 4 L148 12 L160 4 L172 12 L184 4 L196 12 L208 4 L220 12 L232 4 L244 12 L256 4 L268 12 L280 4 L292 12 L304 4 L316 12" stroke="#f06b6f"/>
    <path d="M4 12 L16 20 L28 12 L40 20 L52 12 L64 20 L76 12 L88 20 L100 12 L112 20 L124 12 L136 20 L148 12 L160 20 L172 12 L184 20 L196 12 L208 20 L220 12 L232 20 L244 12 L256 20 L268 12 L280 20 L292 12 L304 20 L316 12" stroke="#f1a23c"/>
    <path d="M10 12 L22 8 L34 12 L46 8 L58 12 L70 8 L82 12 L94 8 L106 12 L118 8 L130 12 L142 8 L154 12 L166 8 L178 12 L190 8 L202 12 L214 8 L226 12 L238 8 L250 12 L262 8 L274 12 L286 8 L298 12 L310 8" stroke="#4fb3b8"/>
  </g>
</svg>
