<svg xmlns="http://www.w3.org/2000/svg" width="200" height="200" viewBox="0 0 200 200" fill="none">
  <rect width="200" height="200" fill="transparent"/>
  <g stroke="#f4cdb2" stroke-width="2" opacity="0.35">
    <path d="M0 40 L40 0 L80 40 L120 0 L160 40 L200 0"/>
    <path d="M0 120 L40 80 L80 120 L120 80 L160 120 L200 80"/>
    <path d="M0 200 L40 160 L80 200 L120 160 L160 200 L200 160"/>
    <path d="M0 0 L40 40 L80 0 L120 40 L160 0 L200 40"/>
    <path d="M0 80 L40 120 L80 80 L120 120 L160 80 L200 120"/>
    <path d="M0 160 L40 200 L80 160 L120 200 L160 160 L200 200"/>
  </g>
</svg>
